{"title":"Issaq 2013 DVDRip x264 Hindi ESubs - ViZNU [P2PDL]","uid":9038085,"size":532974404,"categoryP":"video","categoryS":"movies","magnet":"?xt=urn:btih:48269cb3720232e363b3b401b13cdd8f9db19989&amp;dn=Issaq+2013+DVDRip+x264+Hindi+ESubs+-+ViZNU+%5BP2PDL%5D&amp;tr=udp%3A%2F%2Ftracker.openbittorrent.com%3A80&amp;tr=udp%3A%2F%2Fopen.demonii.com%3A1337&amp;tr=udp%3A%2F%2Ftracker.coppersurfer.tk%3A6969&amp;tr=udp%3A%2F%2Fexodus.desync.com%3A6969","seeders":1,"leechers":0,"uploader":"ValidusVyto","files":-1,"time":1381554035,"description":"_______ Visit us at our Semi Public Bittorrent Community ________\n  &lt;a href=&quot;\nhttp://p2pdl.com&quot; rel=&quot;nofollow&quot; target=&quot;_NEW&quot;&gt;\nhttp://p2pdl.com&lt;/a&gt;  _____________________________ &lt;a href=&quot; http://p2pdl.com&quot; rel=&quot;nofollow&quot; target=&quot;_NEW&quot;&gt; http://p2pdl.com&lt;/a&gt;\n\n\n\nIssaq 2013 DVDRip x264 Hindi ESubs - ViZNU\n\n\nGenre: Drama\nPlot: A contemporary adaptation of Romeo and Juliet set in the backdrop of Varanasi\nin the UP heartland, complete with naxalism, sand mining mafia and of course the\ntimeless love story.   \nDirector: Manish Tiwary\nStars: Malini Awasthi, Sandeep Bose, Amyra Dastur.\nRated: U/A \n\nIMDb: &lt;a href=&quot;\nhttp://www.imdb.com/title/tt2215163/&quot; rel=&quot;nofollow&quot; target=&quot;_NEW&quot;&gt;\nhttp://www.imdb.com/title/tt2215163/&lt;/a&gt;\n\nTrailer:\n\n\nFormat                         : MPEG-4\nFile size                      : 502 MiB\nDuration                       : 2h 23mn\nOverall bit rate               : 489 Kbps\n\nVideo\nFormat                         : AVC\nBit rate                       : 446 Kbps\nWidth                          : 720 pixels\nHeight                         : 304 pixels\nDisplay aspect ratio           : 2.35:1\nFrame rate mode                : Constant\nFrame rate                     : 25.000 fps\nBit depth                      : 10 bits\nStream size                    : 457 MiB (91%)\nWriting library                : x264 core 138 r2358\nAudio\nFormat                         : AAC\nBit rate mode                  : Variable\nBit rate                       : 39.9 Kbps\nChannel(s)                     : 2 channels\nChannel positions              : Front: L R\nSampling rate                  : 48.0 KHz\nStream size                    : 40.9 MiB (8%)\nLanguage                       : Hindi\n\nSubtitle                       : Yes(English)\n\nSource                         : DVD9\n &lt;a href=&quot;\nhttp://ultraimg.com/images/NRjlt.png&quot; rel=&quot;nofollow&quot; target=&quot;_NEW&quot;&gt;\nhttp://ultraimg.com/images/NRjlt.png&lt;/a&gt; &lt;a href=&quot;\nhttp://ultraimg.com/images/xwbh.png&quot; rel=&quot;nofollow&quot; target=&quot;_NEW&quot;&gt;\nhttp://ultraimg.com/images/xwbh.png&lt;/a&gt; &lt;a href=&quot;\nhttp://ultraimg.com/images/p7MUY.png&quot; rel=&quot;nofollow&quot; target=&quot;_NEW&quot;&gt;\nhttp://ultraimg.com/images/p7MUY.png&lt;/a&gt; &lt;a href=&quot;\nhttp://ultraimg.com/images/c1gl.png&quot; rel=&quot;nofollow&quot; target=&quot;_NEW&quot;&gt;\nhttp://ultraimg.com/images/c1gl.png&lt;/a&gt; &lt;a href=&quot;\nhttp://ultraimg.com/images/ZNX6l.png&quot; rel=&quot;nofollow&quot; target=&quot;_NEW&quot;&gt;\nhttp://ultraimg.com/images/ZNX6l.png&lt;/a&gt; &lt;a href=&quot;\nhttp://ultraimg.com/images/BgSkp.png&quot; rel=&quot;nofollow&quot; target=&quot;_NEW&quot;&gt;\nhttp://ultraimg.com/images/BgSkp.png&lt;/a&gt; &lt;a href=&quot;\nhttp://ultraimg.com/images/JEnpa.png&quot; rel=&quot;nofollow&quot; target=&quot;_NEW&quot;&gt;\nhttp://ultraimg.com/images/JEnpa.png&lt;/a&gt; &lt;a href=&quot;\nhttp://ultraimg.com/images/wJuoD.png&quot; rel=&quot;nofollow&quot; target=&quot;_NEW&quot;&gt;\nhttp://ultraimg.com/images/wJuoD.png&lt;/a&gt;\n\n----------------------------------------------------------------------------------------------------\n\n\nEncoded using revolutionary 10bit encoding, which enables us to provide you more crispier \nand sharper images at small sizes, just make sure you follow our instructions without a fault.\nRecommend to you to use latest version of VLC player. Install K-Lite Codec Pack or shark007 codecs\nin case of any kind of problem in playback (For non-VLC Media Player users). Alternatively, install\nCore AVC codecs, the fastest decoder that there is coupled with Community Center Codec Pack and play\non Windows Media Player Classic. Check sample to be sure.\nEnjoy!\n\nEncoder Notes:Looking For Early Access To Anything You Can Provide DVDScr, R5, DVDR, BluRay, Direct\nAudio, Music Releases and Seedboxes. We require dedicated servers, so as to do more \nand fast releases of movies.\nIf You Got anything to offer please contact us at &quot;&lt;a class=&quot;__cf_email__&quot; href=&quot;/cdn-cgi/l/email-protection&quot; data-cfemail=&quot;a6d6d4c1e6ced3d5ce88c5c9cb&quot;&gt;[email&amp;#160;protected]&lt;/a&gt;&lt;script cf-hash='f9e31' type=&quot;text/javascript&quot;&gt;\n/* &lt;![CDATA[ */!function(){try{var t=&quot;currentScript&quot;in document?document.currentScript:function(){for(var t=document.getElementsByTagName(&quot;script&quot;),e=t.length;e--;)if(t[e].getAttribute(&quot;cf-hash&quot;))return t[e]}();if(t&amp;&amp;t.previousSibling){var e,r,n,i,c=t.previousSibling,a=c.getAttribute(&quot;data-cfemail&quot;);if(a){for(e=&quot;&quot;,r=parseInt(a.substr(0,2),16),n=2;a.length-n;n+=2)i=parseInt(a.substr(n,2),16)^r,e+=String.fromCharCode(i);e=document.createTextNode(e),c.parentNode.replaceChild(e,c)}}}catch(u){}}();/* ]]&gt; */&lt;/script&gt;&quot;.\n\nFacebook Fan Page:  \nSearch P2PDL on FB and hit like!!!\n\nFor more of our team uploads visit @                                             &lt;a href=&quot; http://thepiratebay.se/user/vitamin_x&quot; rel=&quot;nofollow&quot; target=&quot;_NEW&quot;&gt; http://thepiratebay.se/user/vitamin_x&lt;/a&gt;\t","torrent":{"xt":"urn:btih:48269cb3720232e363b3b401b13cdd8f9db19989","amp;dn":"Issaq+2013+DVDRip+x264+Hindi+ESubs+-+ViZNU+%5BP2PDL%5D","amp;tr":["udp%3A%2F%2Ftracker.openbittorrent.com%3A80","udp%3A%2F%2Fopen.demonii.com%3A1337","udp%3A%2F%2Ftracker.coppersurfer.tk%3A6969","udp%3A%2F%2Fexodus.desync.com%3A6969"],"infoHash":"48269cb3720232e363b3b401b13cdd8f9db19989","infoHashBuffer":{"type":"Buffer","data":[72,38,156,179,114,2,50,227,99,179,180,1,177,60,221,143,157,177,153,137]},"announce":[],"urlList":[]}}